<svg id="Calque_1" data-name="Calque 1" xmlns="http://www.w3.org/2000/svg" viewBox="0 0 116.16 163.26"><path d="M87.08,123.74c-9.4,43.3,38.91,65.08,71.41,40.73l.32.23c-9,27.69-45.79,39.87-70.26,25.05C66.07,175.15,66.39,139.82,87.08,123.74Z" transform="translate(-42.66 -63.57)"/><path d="M102.75,146.35c-7.74-.31-7.38-11.38.52-11.23C111.58,135.86,110.77,146,102.75,146.35Z" transform="translate(-42.66 -63.57)"/><path d="M123.17,206.23c2.45-.28,2.43-.28,2.71,1.76.86,6.29,1.69,12.6,2.72,18.84C122.41,226.9,124.69,211,123.17,206.23Z" transform="translate(-42.66 -63.57)"/><path d="M56.62,67.25c6.05-2.8,10,13.28,14,16.79-1.84,1.3-2.16,1.2-3.17-.41C63.94,78.07,60.63,72.54,56.62,67.25Z" transform="translate(-42.66 -63.57)"/><path d="M83.69,80.2c-.56-5.68-2.94-11.23-2.27-16.63,4.25,2.95,3.38,10,5.44,14.56C87.67,80.43,85.29,79.6,83.69,80.2Z" transform="translate(-42.66 -63.57)"/><path d="M106.13,204.5l3.17.65c-1.5,5.28-1.84,11.61-5,16.09C102,216.4,105.38,209.8,106.13,204.5Z" transform="translate(-42.66 -63.57)"/><path d="M140.88,201.25l8.32,14.06-.29.44c-4.93-2.72-8-8.5-11.21-13.05Z" transform="translate(-42.66 -63.57)"/><path d="M58.6,92.66c-.91,1-1.69,2.73-3.21,1.78-4.26-3.1-8.42-6.32-12.73-9.34l.15-.52C48.61,85.52,53.77,89.44,58.6,92.66Z" transform="translate(-42.66 -63.57)"/><path d="M159.58,108" transform="translate(-42.66 -63.57)"/><path d="M120.1,167.08c16.77-41-27-70.85-63.25-52.52l-.29-.28c13.65-25.71,52-31.31,73.55-12.47C149.71,120.1,143.26,154.83,120.1,167.08Z" transform="translate(-42.66 -63.57)"/></svg>